<svg xmlns="http://www.w3.org/2000/svg" viewBox="0 0 48 48" width="48" height="48">
  <defs>
    <radialGradient id="rvTile" cx="24" cy="20" r="30" gradientUnits="userSpaceOnUse">
      <stop offset="0" stop-color="#14173B"/>
      <stop offset="1" stop-color="#080A24"/>
    </radialGradient>
    <linearGradient id="rvR" x1="17" y1="14" x2="35" y2="36" gradientUnits="userSpaceOnUse">
      <stop offset="0" stop-color="#FFFFFF"/>
      <stop offset="1" stop-color="#C7CBDA"/>
    </linearGradient>
    <linearGradient id="rvV" x1="25" y1="22" x2="48" y2="44" gradientUnits="userSpaceOnUse">
      <stop offset="0" stop-color="#7C4DFF"/>
      <stop offset="1" stop-color="#4A1FE0"/>
    </linearGradient>
  </defs>
  <rect width="48" height="48" rx="10.5" fill="url(#rvTile)"/>
  <g transform="translate(9.6 9.6) scale(0.6)">
    <path d="M25 22 L37 44 L48 22 L42.5 22 L37 31 L31.5 22 Z" fill="url(#rvV)"/>
    <path fill-rule="evenodd" clip-rule="evenodd" d="M8 4 H27 C35 4 40 9 40 16 C40 22 36 26.5 30 27.8 L44 44 H32.5 L20.5 28.5 H20 V44 H8 Z M20 11 H26.5 C29.8 11 31.8 12.8 31.8 15.8 C31.8 18.8 29.8 20.6 26.5 20.6 H20 Z M8 36 L20 44 L8 44 Z" fill="url(#rvR)"/>
  </g>
</svg>
